# xmcd
#
# Track frame offsets:
# 150
# 21125
# 34175
# 51737
# 63500
# 73225
# 84800
# 96300
# 111350
# 122725
# 135350
# 146757
# 163035
# 175482
# 187932
# 201582
# 218360
# 230147
# 245512
# 262155
#
# Disc length: 3685 seconds
#
#
# Revision: 0
# Processed by: cddbd v1.4PL0 Copyright (c) Steve Scherf et al.
# Submitted via: FreeRIP 2.11 
#
DISCID=350e6314
DTITLE=Marty Robbins/Johnny Cash - Marty Robbins and Johnn Cash 20 Greatest Hits
DYEAR=1900
DGENRE=Country
TTITLE0=El Paso
TTITLE1=Devil Woman
TTITLE2=Big Iron
TTITLE3=18 Yellow Roses
TTITLE4=Just Married
TTITLE5=Story of My Life
TTITLE6=Ribbon of Darkness
TTITLE7=Padre
TTITLE8=White Sports Coat
TTITLE9=Streets of Laredo
TTITLE10=I Walk the Line
TTITLE11=The Baron
TTITLE12=Folsom Prison Blues
TTITLE13=Jackson
TTITLE14=Don't Take Your Guns to Town
TTITLE15=Ghost Riders in the Sky
TTITLE16=Ring of Fire
TTITLE17=The Night They Drove Old Dixie Down
TTITLE18=A Boy Named Sue
TTITLE19=Danny Boy
EXTD=
EXTT0=
EXTT1=
EXTT2=
EXTT3=
EXTT4=
EXTT5=
EXTT6=
EXTT7=
EXTT8=
EXTT9=
EXTT10=
EXTT11=
EXTT12=
EXTT13=
EXTT14=
EXTT15=
EXTT16=
EXTT17=
EXTT18=
EXTT19=
PLAYORDER=
